<svg class="" id="visual" viewBox="0 375.1739196777344 1536 165.82608032226562" xmlns="http://www.w3.org/2000/svg" xmlns:xlink="http://www.w3.org/1999/xlink" version="1.1">
    <path d="M0 377L20 376.5C40 376 80 375 120 375.2C160 375.3 200 376.7 240 380.5C280 384.3 320 390.7 360 391.5C400 392.3 440 387.7 480 387.7C520 387.7 560 392.3 600 393.5C640 394.7 680 392.3 720 389C760 385.7 800 381.3 840 379C880 376.7 920 376.3 940 376.2L960 376L960 541L940 541C920 541 880 541 840 541C800 541 760 541 720 541C680 541 640 541 600 541C560 541 520 541 480 541C440 541 400 541 360 541C320 541 280 541 240 541C200 541 160 541 120 541C80 541 40 541 20 541L0 541Z" fill="#54c0e8"></path>
    <path d="M0 433L20 427.8C40 422.7 80 412.3 120 407.7C160 403 200 404 240 404.8C280 405.7 320 406.3 360 407.2C400 408 440 409 480 413.5C520 418 560 426 600 424.3C640 422.7 680 411.3 720 407.7C760 404 800 408 840 410.5C880 413 920 414 940 414.5L960 415L960 541L940 541C920 541 880 541 840 541C800 541 760 541 720 541C680 541 640 541 600 541C560 541 520 541 480 541C440 541 400 541 360 541C320 541 280 541 240 541C200 541 160 541 120 541C80 541 40 541 20 541L0 541Z" fill="#4192b6"></path>
    <path d="M0 448L20 446.8C40 445.7 80 443.3 120 442C160 440.7 200 440.3 240 441.2C280 442 320 444 360 445.7C400 447.3 440 448.7 480 446.5C520 444.3 560 438.7 600 438.7C640 438.7 680 444.3 720 445.7C760 447 800 444 840 445.5C880 447 920 453 940 456L960 459L960 541L940 541C920 541 880 541 840 541C800 541 760 541 720 541C680 541 640 541 600 541C560 541 520 541 480 541C440 541 400 541 360 541C320 541 280 541 240 541C200 541 160 541 120 541C80 541 40 541 20 541L0 541Z" fill="#2d6786"></path>
    <path d="M0 484L20 480.2C40 476.3 80 468.7 120 465.8C160 463 200 465 240 468.7C280 472.3 320 477.7 360 478.5C400 479.3 440 475.7 480 472.7C520 469.7 560 467.3 600 469.5C640 471.7 680 478.3 720 479.2C760 480 800 475 840 473.2C880 471.3 920 472.7 940 473.3L960 474L960 541L940 541C920 541 880 541 840 541C800 541 760 541 720 541C680 541 640 541 600 541C560 541 520 541 480 541C440 541 400 541 360 541C320 541 280 541 240 541C200 541 160 541 120 541C80 541 40 541 20 541L0 541Z" fill="#193f57"></path>
    <path d="M0 500L20 499.3C40 498.7 80 497.3 120 498C160 498.7 200 501.3 240 501.2C280 501 320 498 360 496.7C400 495.3 440 495.7 480 497.3C520 499 560 502 600 501.7C640 501.3 680 497.7 720 498.8C760 500 800 506 840 508.5C880 511 920 510 940 509.5L960 509L960 541L940 541C920 541 880 541 840 541C800 541 760 541 720 541C680 541 640 541 600 541C560 541 520 541 480 541C440 541 400 541 360 541C320 541 280 541 240 541C200 541 160 541 120 541C80 541 40 541 20 541L0 541Z" fill="#051c2c"></path>
</svg>
